# Blender v3.0.0 OBJ File: ''
# www.blender.org
mtllib alan zemin.mtl
o Curve
v -0.027533 0.002500 -0.036745
v 0.027533 0.002500 -0.036745
v 0.029651 0.002500 -0.036564
v 0.031417 0.002500 -0.036063
v 0.032863 0.002500 -0.035305
v 0.034021 0.002500 -0.034355
v 0.034923 0.002500 -0.033278
v 0.035601 0.002500 -0.032136
v 0.036086 0.002500 -0.030995
v 0.036412 0.002500 -0.029917
v 0.036609 0.002500 -0.028967
v 0.036710 0.002500 -0.028210
v 0.036748 0.002500 -0.027708
v 0.036753 0.002500 -0.027527
v 0.036753 0.002500 0.027527
v 0.036572 0.002500 0.029645
v 0.036070 0.002500 0.031411
v 0.035312 0.002500 0.032856
v 0.034363 0.002500 0.034014
v 0.033285 0.002500 0.034916
v 0.032143 0.002500 0.035593
v 0.031001 0.002500 0.036079
v 0.029923 0.002500 0.036404
v 0.028973 0.002500 0.036601
v 0.028216 0.002500 0.036703
v 0.027714 0.002500 0.036740
v 0.027533 0.002500 0.036745
v -0.027533 0.002500 0.036745
v -0.029651 0.002500 0.036564
v -0.031417 0.002500 0.036063
v -0.032863 0.002500 0.035305
v -0.034021 0.002500 0.034355
v -0.034923 0.002500 0.033278
v -0.035601 0.002500 0.032136
v -0.036086 0.002500 0.030995
v -0.036412 0.002500 0.029917
v -0.036609 0.002500 0.028967
v -0.036710 0.002500 0.028210
v -0.036748 0.002500 0.027708
v -0.036753 0.002500 0.027527
v -0.036753 0.002500 -0.027527
v -0.036572 0.002500 -0.029645
v -0.036070 0.002500 -0.031411
v -0.035312 0.002500 -0.032856
v -0.034363 0.002500 -0.034014
v -0.033285 0.002500 -0.034916
v -0.032143 0.002500 -0.035593
v -0.031001 0.002500 -0.036079
v -0.029923 0.002500 -0.036404
v -0.028973 0.002500 -0.036601
v -0.028216 0.002500 -0.036703
v -0.027714 0.002500 -0.036740
v -0.027533 -0.002500 -0.036745
v 0.027533 -0.002500 -0.036745
v 0.029651 -0.002500 -0.036564
v 0.031417 -0.002500 -0.036063
v 0.032863 -0.002500 -0.035305
v 0.034021 -0.002500 -0.034355
v 0.034923 -0.002500 -0.033278
v 0.035601 -0.002500 -0.032136
v 0.036086 -0.002500 -0.030995
v 0.036412 -0.002500 -0.029917
v 0.036609 -0.002500 -0.028967
v 0.036710 -0.002500 -0.028210
v 0.036748 -0.002500 -0.027708
v 0.036753 -0.002500 -0.027527
v 0.036753 -0.002500 0.027527
v 0.036572 -0.002500 0.029645
v 0.036070 -0.002500 0.031411
v 0.035312 -0.002500 0.032856
v 0.034363 -0.002500 0.034014
v 0.033285 -0.002500 0.034916
v 0.032143 -0.002500 0.035593
v 0.031001 -0.002500 0.036079
v 0.029923 -0.002500 0.036404
v 0.028973 -0.002500 0.036601
v 0.028216 -0.002500 0.036703
v 0.027714 -0.002500 0.036740
v 0.027533 -0.002500 0.036745
v -0.027533 -0.002500 0.036745
v -0.029651 -0.002500 0.036564
v -0.031417 -0.002500 0.036063
v -0.032863 -0.002500 0.035305
v -0.034021 -0.002500 0.034355
v -0.034923 -0.002500 0.033278
v -0.035601 -0.002500 0.032136
v -0.036086 -0.002500 0.030995
v -0.036412 -0.002500 0.029917
v -0.036609 -0.002500 0.028967
v -0.036710 -0.002500 0.028210
v -0.036748 -0.002500 0.027708
v -0.036753 -0.002500 0.027527
v -0.036753 -0.002500 -0.027527
v -0.036572 -0.002500 -0.029645
v -0.036070 -0.002500 -0.031411
v -0.035312 -0.002500 -0.032856
v -0.034363 -0.002500 -0.034014
v -0.033285 -0.002500 -0.034916
v -0.032143 -0.002500 -0.035593
v -0.031001 -0.002500 -0.036079
v -0.029923 -0.002500 -0.036404
v -0.028973 -0.002500 -0.036601
v -0.028216 -0.002500 -0.036703
v -0.027714 -0.002500 -0.036740
vt 1.000000 0.000000
vt 0.019608 0.000000
vt 0.000000 0.000000
vt 0.039216 0.000000
vt 0.980392 0.000000
vt 0.960784 0.000000
vt 0.941176 0.000000
vt 0.058824 0.000000
vt 0.921569 0.000000
vt 0.901961 0.000000
vt 0.078431 0.000000
vt 0.882353 0.000000
vt 0.098039 0.000000
vt 0.862745 0.000000
vt 0.117647 0.000000
vt 0.843137 0.000000
vt 0.137255 0.000000
vt 0.823529 0.000000
vt 0.156863 0.000000
vt 0.803922 0.000000
vt 0.176471 0.000000
vt 0.196078 0.000000
vt 0.784314 0.000000
vt 0.215686 0.000000
vt 0.235294 0.000000
vt 0.254902 0.000000
vt 0.764706 0.000000
vt 0.274510 0.000000
vt 0.745098 0.000000
vt 0.294118 0.000000
vt 0.725490 0.000000
vt 0.705882 0.000000
vt 0.686275 0.000000
vt 0.313726 0.000000
vt 0.666667 0.000000
vt 0.647059 0.000000
vt 0.333333 0.000000
vt 0.627451 0.000000
vt 0.352941 0.000000
vt 0.607843 0.000000
vt 0.372549 0.000000
vt 0.588235 0.000000
vt 0.392157 0.000000
vt 0.568627 0.000000
vt 0.411765 0.000000
vt 0.549020 0.000000
vt 0.431373 0.000000
vt 0.450980 0.000000
vt 0.529412 0.000000
vt 0.470588 0.000000
vt 0.490196 0.000000
vt 0.509804 0.000000
vt 1.000000 0.000000
vt 0.000000 0.000000
vt 0.019608 0.000000
vt 0.039216 0.000000
vt 0.980392 0.000000
vt 0.960784 0.000000
vt 0.941176 0.000000
vt 0.058824 0.000000
vt 0.921569 0.000000
vt 0.901961 0.000000
vt 0.078431 0.000000
vt 0.882353 0.000000
vt 0.098039 0.000000
vt 0.862745 0.000000
vt 0.117647 0.000000
vt 0.843137 0.000000
vt 0.137255 0.000000
vt 0.823529 0.000000
vt 0.156863 0.000000
vt 0.803922 0.000000
vt 0.176471 0.000000
vt 0.196078 0.000000
vt 0.784314 0.000000
vt 0.215686 0.000000
vt 0.235294 0.000000
vt 0.254902 0.000000
vt 0.764706 0.000000
vt 0.274510 0.000000
vt 0.745098 0.000000
vt 0.294118 0.000000
vt 0.725490 0.000000
vt 0.705882 0.000000
vt 0.686275 0.000000
vt 0.313726 0.000000
vt 0.666667 0.000000
vt 0.647059 0.000000
vt 0.333333 0.000000
vt 0.627451 0.000000
vt 0.352941 0.000000
vt 0.607843 0.000000
vt 0.372549 0.000000
vt 0.588235 0.000000
vt 0.392157 0.000000
vt 0.568627 0.000000
vt 0.411765 0.000000
vt 0.549020 0.000000
vt 0.431373 0.000000
vt 0.450980 0.000000
vt 0.529412 0.000000
vt 0.470588 0.000000
vt 0.490196 0.000000
vt 0.509804 0.000000
vn 0.0000 1.0000 0.0000
vn -0.0000 1.0000 0.0020
vn 0.0000 1.0000 -0.0008
vn -0.0000 1.0000 0.0001
vn -0.0000 1.0000 -0.0001
vn -0.0000 1.0000 -0.0002
vn 0.0000 1.0000 0.0004
vn 0.0000 -1.0000 0.0000
vn -0.0000 -1.0000 0.0020
vn 0.0000 -1.0000 -0.0008
vn -0.0000 -1.0000 0.0001
vn -0.0000 -1.0000 -0.0001
vn -0.0000 -1.0000 -0.0002
vn 0.0000 -1.0000 0.0004
vn -0.0294 0.0000 -0.9996
vn 0.0000 0.0000 -1.0000
vn 0.0853 0.0000 -0.9964
vn -0.0742 0.0000 -0.9972
vn -0.1326 0.0000 -0.9912
vn -0.2035 0.0000 -0.9791
vn 0.2731 0.0000 -0.9620
vn -0.2890 0.0000 -0.9573
vn -0.3913 0.0000 -0.9203
vn 0.4641 0.0000 -0.8858
vn -0.5103 0.0000 -0.8600
vn 0.6341 0.0000 -0.7732
vn -0.6416 0.0000 -0.7670
vn 0.7669 0.0000 -0.6418
vn -0.7731 0.0000 -0.6343
vn 0.8599 0.0000 -0.5104
vn -0.8857 0.0000 -0.4642
vn 0.9202 0.0000 -0.3914
vn -0.9619 0.0000 -0.2732
vn 0.9573 0.0000 -0.2891
vn 0.9791 0.0000 -0.2036
vn -0.9964 0.0000 -0.0853
vn 0.9912 0.0000 -0.1326
vn 0.9972 0.0000 -0.0743
vn 0.9996 0.0000 -0.0294
vn -1.0000 0.0000 0.0000
vn 1.0000 0.0000 0.0000
vn -0.9996 0.0000 0.0294
vn 0.9964 0.0000 0.0853
vn -0.9972 0.0000 0.0743
vn -0.9912 0.0000 0.1326
vn -0.9791 0.0000 0.2036
vn 0.9619 0.0000 0.2732
vn -0.9573 0.0000 0.2891
vn -0.9202 0.0000 0.3914
vn 0.8857 0.0000 0.4642
vn -0.8599 0.0000 0.5104
vn 0.7731 0.0000 0.6343
vn -0.7669 0.0000 0.6418
vn 0.6416 0.0000 0.7670
vn -0.6341 0.0000 0.7732
vn 0.5103 0.0000 0.8600
vn -0.4641 0.0000 0.8858
vn 0.3913 0.0000 0.9203
vn -0.2731 0.0000 0.9620
vn 0.2890 0.0000 0.9573
vn 0.2035 0.0000 0.9791
vn -0.0853 0.0000 0.9964
vn 0.1326 0.0000 0.9912
vn 0.0742 0.0000 0.9972
vn 0.0000 0.0000 1.0000
vn 0.0294 0.0000 0.9996
usemtl SVGMat
s off
f 52/1/1 2/2/1 1/3/1
f 52/1/1 3/4/1 2/2/1
f 51/5/2 3/4/2 52/1/2
f 50/6/3 3/4/3 51/5/3
f 49/7/1 3/4/1 50/6/1
f 49/7/1 4/8/1 3/4/1
f 48/9/1 4/8/1 49/7/1
f 47/10/1 4/8/1 48/9/1
f 47/10/1 5/11/1 4/8/1
f 46/12/4 5/11/4 47/10/4
f 46/12/1 6/13/1 5/11/1
f 45/14/5 6/13/5 46/12/5
f 45/14/1 7/15/1 6/13/1
f 44/16/1 7/15/1 45/14/1
f 44/16/1 8/17/1 7/15/1
f 43/18/1 8/17/1 44/16/1
f 43/18/1 9/19/1 8/17/1
f 42/20/1 9/19/1 43/18/1
f 42/20/1 10/21/1 9/19/1
f 42/20/1 11/22/1 10/21/1
f 41/23/1 11/22/1 42/20/1
f 41/23/4 12/24/4 11/22/4
f 41/23/6 13/25/6 12/24/6
f 41/23/7 14/26/7 13/25/7
f 40/27/1 14/26/1 41/23/1
f 40/27/1 15/28/1 14/26/1
f 39/29/7 15/28/7 40/27/7
f 39/29/1 16/30/1 15/28/1
f 38/31/6 16/30/6 39/29/6
f 37/32/4 16/30/4 38/31/4
f 36/33/5 16/30/5 37/32/5
f 36/33/1 17/34/1 16/30/1
f 35/35/1 17/34/1 36/33/1
f 34/36/1 17/34/1 35/35/1
f 34/36/4 18/37/4 17/34/4
f 33/38/1 18/37/1 34/36/1
f 33/38/5 19/39/5 18/37/5
f 32/40/1 19/39/1 33/38/1
f 32/40/4 20/41/4 19/39/4
f 31/42/1 20/41/1 32/40/1
f 31/42/1 21/43/1 20/41/1
f 30/44/1 21/43/1 31/42/1
f 30/44/1 22/45/1 21/43/1
f 29/46/1 22/45/1 30/44/1
f 29/46/6 23/47/6 22/45/6
f 29/46/1 24/48/1 23/47/1
f 28/49/1 24/48/1 29/46/1
f 28/49/1 25/50/1 24/48/1
f 28/49/1 26/51/1 25/50/1
f 28/49/1 27/52/1 26/51/1
f 104/53/8 53/54/8 54/55/8
f 104/53/8 54/55/8 55/56/8
f 103/57/9 104/53/9 55/56/9
f 102/58/10 103/57/10 55/56/10
f 101/59/8 102/58/8 55/56/8
f 101/59/8 55/56/8 56/60/8
f 100/61/8 101/59/8 56/60/8
f 99/62/8 100/61/8 56/60/8
f 99/62/8 56/60/8 57/63/8
f 98/64/11 99/62/11 57/63/11
f 98/64/8 57/63/8 58/65/8
f 97/66/12 98/64/12 58/65/12
f 97/66/8 58/65/8 59/67/8
f 96/68/8 97/66/8 59/67/8
f 96/68/8 59/67/8 60/69/8
f 95/70/8 96/68/8 60/69/8
f 95/70/8 60/69/8 61/71/8
f 94/72/8 95/70/8 61/71/8
f 94/72/8 61/71/8 62/73/8
f 94/72/8 62/73/8 63/74/8
f 93/75/8 94/72/8 63/74/8
f 93/75/11 63/74/11 64/76/11
f 93/75/13 64/76/13 65/77/13
f 93/75/14 65/77/14 66/78/14
f 92/79/8 93/75/8 66/78/8
f 92/79/8 66/78/8 67/80/8
f 91/81/14 92/79/14 67/80/14
f 91/81/8 67/80/8 68/82/8
f 90/83/13 91/81/13 68/82/13
f 89/84/11 90/83/11 68/82/11
f 88/85/12 89/84/12 68/82/12
f 88/85/8 68/82/8 69/86/8
f 87/87/8 88/85/8 69/86/8
f 86/88/8 87/87/8 69/86/8
f 86/88/11 69/86/11 70/89/11
f 85/90/8 86/88/8 70/89/8
f 85/90/12 70/89/12 71/91/12
f 84/92/8 85/90/8 71/91/8
f 84/92/11 71/91/11 72/93/11
f 83/94/8 84/92/8 72/93/8
f 83/94/8 72/93/8 73/95/8
f 82/96/8 83/94/8 73/95/8
f 82/96/8 73/95/8 74/97/8
f 81/98/8 82/96/8 74/97/8
f 81/98/13 74/97/13 75/99/13
f 81/98/8 75/99/8 76/100/8
f 80/101/8 81/98/8 76/100/8
f 80/101/8 76/100/8 77/102/8
f 80/101/8 77/102/8 78/103/8
f 80/101/8 78/103/8 79/104/8
f 52/1/15 1/3/15 53/54/15 104/53/15
f 1/3/16 2/2/16 54/55/16 53/54/16
f 2/2/17 3/4/17 55/56/17 54/55/17
f 51/5/18 52/1/18 104/53/18 103/57/18
f 50/6/19 51/5/19 103/57/19 102/58/19
f 49/7/20 50/6/20 102/58/20 101/59/20
f 3/4/21 4/8/21 56/60/21 55/56/21
f 48/9/22 49/7/22 101/59/22 100/61/22
f 47/10/23 48/9/23 100/61/23 99/62/23
f 4/8/24 5/11/24 57/63/24 56/60/24
f 46/12/25 47/10/25 99/62/25 98/64/25
f 5/11/26 6/13/26 58/65/26 57/63/26
f 45/14/27 46/12/27 98/64/27 97/66/27
f 6/13/28 7/15/28 59/67/28 58/65/28
f 44/16/29 45/14/29 97/66/29 96/68/29
f 7/15/30 8/17/30 60/69/30 59/67/30
f 43/18/31 44/16/31 96/68/31 95/70/31
f 8/17/32 9/19/32 61/71/32 60/69/32
f 42/20/33 43/18/33 95/70/33 94/72/33
f 9/19/34 10/21/34 62/73/34 61/71/34
f 10/21/35 11/22/35 63/74/35 62/73/35
f 41/23/36 42/20/36 94/72/36 93/75/36
f 11/22/37 12/24/37 64/76/37 63/74/37
f 12/24/38 13/25/38 65/77/38 64/76/38
f 13/25/39 14/26/39 66/78/39 65/77/39
f 40/27/40 41/23/40 93/75/40 92/79/40
f 14/26/41 15/28/41 67/80/41 66/78/41
f 39/29/42 40/27/42 92/79/42 91/81/42
f 15/28/43 16/30/43 68/82/43 67/80/43
f 38/31/44 39/29/44 91/81/44 90/83/44
f 37/32/45 38/31/45 90/83/45 89/84/45
f 36/33/46 37/32/46 89/84/46 88/85/46
f 16/30/47 17/34/47 69/86/47 68/82/47
f 35/35/48 36/33/48 88/85/48 87/87/48
f 34/36/49 35/35/49 87/87/49 86/88/49
f 17/34/50 18/37/50 70/89/50 69/86/50
f 33/38/51 34/36/51 86/88/51 85/90/51
f 18/37/52 19/39/52 71/91/52 70/89/52
f 32/40/53 33/38/53 85/90/53 84/92/53
f 19/39/54 20/41/54 72/93/54 71/91/54
f 31/42/55 32/40/55 84/92/55 83/94/55
f 20/41/56 21/43/56 73/95/56 72/93/56
f 30/44/57 31/42/57 83/94/57 82/96/57
f 21/43/58 22/45/58 74/97/58 73/95/58
f 29/46/59 30/44/59 82/96/59 81/98/59
f 22/45/60 23/47/60 75/99/60 74/97/60
f 23/47/61 24/48/61 76/100/61 75/99/61
f 28/49/62 29/46/62 81/98/62 80/101/62
f 24/48/63 25/50/63 77/102/63 76/100/63
f 25/50/64 26/51/64 78/103/64 77/102/64
f 27/52/65 28/49/65 80/101/65 79/104/65
f 26/51/66 27/52/66 79/104/66 78/103/66
