# Blender v3.0.0 OBJ File: ''
# www.blender.org
mtllib alan_zemin_kalinlik yok .mtl
o Curve
v -0.027533 0.000000 -0.036745
v 0.027533 0.000000 -0.036745
v 0.029651 0.000000 -0.036564
v 0.031417 0.000000 -0.036063
v 0.032863 0.000000 -0.035305
v 0.034021 0.000000 -0.034355
v 0.034923 0.000000 -0.033278
v 0.035601 0.000000 -0.032136
v 0.036086 0.000000 -0.030995
v 0.036412 0.000000 -0.029917
v 0.036609 0.000000 -0.028967
v 0.036710 0.000000 -0.028210
v 0.036748 0.000000 -0.027708
v 0.036753 0.000000 -0.027527
v 0.036753 0.000000 0.027527
v 0.036572 0.000000 0.029645
v 0.036070 0.000000 0.031411
v 0.035312 0.000000 0.032856
v 0.034363 0.000000 0.034014
v 0.033285 0.000000 0.034916
v 0.032143 0.000000 0.035593
v 0.031001 0.000000 0.036079
v 0.029923 0.000000 0.036404
v 0.028973 0.000000 0.036601
v 0.028216 0.000000 0.036703
v 0.027714 0.000000 0.036740
v 0.027533 0.000000 0.036745
v -0.027533 0.000000 0.036745
v -0.029651 0.000000 0.036564
v -0.031417 0.000000 0.036063
v -0.032863 0.000000 0.035305
v -0.034021 0.000000 0.034355
v -0.034923 0.000000 0.033278
v -0.035601 0.000000 0.032136
v -0.036086 0.000000 0.030995
v -0.036412 0.000000 0.029917
v -0.036609 0.000000 0.028967
v -0.036710 0.000000 0.028210
v -0.036748 0.000000 0.027708
v -0.036753 0.000000 0.027527
v -0.036753 0.000000 -0.027527
v -0.036572 0.000000 -0.029645
v -0.036070 0.000000 -0.031411
v -0.035312 0.000000 -0.032856
v -0.034363 0.000000 -0.034014
v -0.033285 0.000000 -0.034916
v -0.032143 0.000000 -0.035593
v -0.031001 0.000000 -0.036079
v -0.029923 0.000000 -0.036404
v -0.028973 0.000000 -0.036601
v -0.028216 0.000000 -0.036703
v -0.027714 0.000000 -0.036740
vt 1.000000 0.000000
vt 0.019608 0.000000
vt 0.000000 0.000000
vt 0.039216 0.000000
vt 0.980392 0.000000
vt 0.960784 0.000000
vt 0.941176 0.000000
vt 0.058824 0.000000
vt 0.921569 0.000000
vt 0.901961 0.000000
vt 0.078431 0.000000
vt 0.882353 0.000000
vt 0.098039 0.000000
vt 0.862745 0.000000
vt 0.117647 0.000000
vt 0.843137 0.000000
vt 0.137255 0.000000
vt 0.823529 0.000000
vt 0.156863 0.000000
vt 0.803922 0.000000
vt 0.176471 0.000000
vt 0.196078 0.000000
vt 0.784314 0.000000
vt 0.215686 0.000000
vt 0.235294 0.000000
vt 0.254902 0.000000
vt 0.764706 0.000000
vt 0.274510 0.000000
vt 0.745098 0.000000
vt 0.294118 0.000000
vt 0.725490 0.000000
vt 0.705882 0.000000
vt 0.686275 0.000000
vt 0.313726 0.000000
vt 0.666667 0.000000
vt 0.647059 0.000000
vt 0.333333 0.000000
vt 0.627451 0.000000
vt 0.352941 0.000000
vt 0.607843 0.000000
vt 0.372549 0.000000
vt 0.588235 0.000000
vt 0.392157 0.000000
vt 0.568627 0.000000
vt 0.411765 0.000000
vt 0.549020 0.000000
vt 0.431373 0.000000
vt 0.450980 0.000000
vt 0.529412 0.000000
vt 0.470588 0.000000
vt 0.490196 0.000000
vt 0.509804 0.000000
vn 0.0000 1.0000 0.0000
usemtl SVGMat
s off
f 52/1/1 2/2/1 1/3/1
f 52/1/1 3/4/1 2/2/1
f 51/5/1 3/4/1 52/1/1
f 50/6/1 3/4/1 51/5/1
f 49/7/1 3/4/1 50/6/1
f 49/7/1 4/8/1 3/4/1
f 48/9/1 4/8/1 49/7/1
f 47/10/1 4/8/1 48/9/1
f 47/10/1 5/11/1 4/8/1
f 46/12/1 5/11/1 47/10/1
f 46/12/1 6/13/1 5/11/1
f 45/14/1 6/13/1 46/12/1
f 45/14/1 7/15/1 6/13/1
f 44/16/1 7/15/1 45/14/1
f 44/16/1 8/17/1 7/15/1
f 43/18/1 8/17/1 44/16/1
f 43/18/1 9/19/1 8/17/1
f 42/20/1 9/19/1 43/18/1
f 42/20/1 10/21/1 9/19/1
f 42/20/1 11/22/1 10/21/1
f 41/23/1 11/22/1 42/20/1
f 41/23/1 12/24/1 11/22/1
f 41/23/1 13/25/1 12/24/1
f 41/23/1 14/26/1 13/25/1
f 40/27/1 14/26/1 41/23/1
f 40/27/1 15/28/1 14/26/1
f 39/29/1 15/28/1 40/27/1
f 39/29/1 16/30/1 15/28/1
f 38/31/1 16/30/1 39/29/1
f 37/32/1 16/30/1 38/31/1
f 36/33/1 16/30/1 37/32/1
f 36/33/1 17/34/1 16/30/1
f 35/35/1 17/34/1 36/33/1
f 34/36/1 17/34/1 35/35/1
f 34/36/1 18/37/1 17/34/1
f 33/38/1 18/37/1 34/36/1
f 33/38/1 19/39/1 18/37/1
f 32/40/1 19/39/1 33/38/1
f 32/40/1 20/41/1 19/39/1
f 31/42/1 20/41/1 32/40/1
f 31/42/1 21/43/1 20/41/1
f 30/44/1 21/43/1 31/42/1
f 30/44/1 22/45/1 21/43/1
f 29/46/1 22/45/1 30/44/1
f 29/46/1 23/47/1 22/45/1
f 29/46/1 24/48/1 23/47/1
f 28/49/1 24/48/1 29/46/1
f 28/49/1 25/50/1 24/48/1
f 28/49/1 26/51/1 25/50/1
f 28/49/1 27/52/1 26/51/1
