<svg xmlns="http://www.w3.org/2000/svg" viewBox="0 0 259.65 53.88"><defs><style>.cls-1{fill:#8c8c8c;}</style></defs><title>autolab back</title><g id="Layer_2" data-name="Layer 2"><g id="Layer_1-2" data-name="Layer 1"><path class="cls-1" d="M138.76,2l-2-2h-20.4l-2,2-.69.67A7.29,7.29,0,0,0,108.91.18l-.38,0H77.33a7.17,7.17,0,0,0-1.61.2,8.91,8.91,0,0,0-.9-.16L62.69.14a7.25,7.25,0,0,0-4.17,1.32A7.4,7.4,0,0,0,55.12.18L43,.14a7.18,7.18,0,0,0-4,1.22A6.7,6.7,0,0,0,34.92.14H5.9L4.93,6C4.71,7.39,4,13,.05,45.55l0,.83a7.17,7.17,0,0,0,7.25,7.25H24l.35-1.19a6.73,6.73,0,0,0,4.06,1.19H41.22l4.32-1.92,2,2h2.92c1.24,0,6.5,0,15.73.14,3.29,0,3.85-.57,13.12-10.11l.56-.57v3.18a7.17,7.17,0,0,0,7.25,7.25H98.34a7.18,7.18,0,0,0,7.26-7.25V43l.52.55c2.27,2.36,5,5.1,8.14,8.14l2,2h20.4l2-2c2.36-2.26,5.1-5,8.14-8.13l2-2V12.19l-1.93-2C144.64,7.77,141.9,5,138.76,2Z"/><path class="cls-1" d="M258,8.84c-.51-.59-1.08-1.25-8-6.91L248,.36H221.58a7.16,7.16,0,0,0-3.84,1.12A6.6,6.6,0,0,0,213.51.14h-29l-1,5.87c-.17,1.08-.67,4.75-2.76,21.93l-3.28,0V7.36A7.27,7.27,0,0,0,171.13.19l-.43,0H159a7.26,7.26,0,0,0-7,5.52l-.21.84V46.38A7.17,7.17,0,0,0,159,53.63h23.55a8.08,8.08,0,0,0,1.64-.18,7.92,7.92,0,0,0,1.64.18h16.71l.35-1.19A6.84,6.84,0,0,0,207,53.63h12.85l.31-.14a7.75,7.75,0,0,0,1.45.14H248l1.93-1.57c6.94-5.66,7.52-6.32,8-6.91l1.69-2V10.81Z"/></g></g></svg>