<svg xmlns="http://www.w3.org/2000/svg" viewBox="0 0 245.65 39.88"><defs><style>.cls-1{fill:#231f20;}</style></defs><title>autolab text</title><g id="Layer_2" data-name="Layer 2"><g id="Layer_1-2" data-name="Layer 1"><path class="cls-1" d="M27.92.14q.41,0,1.67,12.44.14.22,3.39,26.94l-.25.11H21.38q-.45,0-1.45-10.27c-.08,0-.15-.4-.22-1.19H13.16c-.79,7.07-1.28,10.89-1.44,11.46H.25A.22.22,0,0,1,0,39.38Q4.34,3.2,4.84.14ZM15.22,11.86l-.61,4.59h3.62l-.47-4.59Z"/><path class="cls-1" d="M36,.14H47.34c.17,0,.25.09.25.22V28h7.85V.36a.22.22,0,0,1,.25-.22H67.05c.16,0,.25.09.25.22V31.9q-7.77,8-8.1,8-13.83-.14-15.73-.14Q35.82,32,35.76,31.9V.36A.22.22,0,0,1,36,.14Z"/><path class="cls-1" d="M70.33.14h30.81c.17,0,.25.09.25.22V11.61a.22.22,0,0,1-.25.25H91.6V39.38c0,.17-.09.25-.26.25H80.13a.22.22,0,0,1-.25-.25V11.86H70.33a.22.22,0,0,1-.25-.25V.36C70.12.21,70.2.14,70.33.14Z"/><path class="cls-1" d="M112.14,0h14.75q4.65,4.51,8,8V31.67q-4.48,4.62-8,8H112.14q-4.62-4.47-8-8V8Q108.65,3.34,112.14,0ZM116,11.86V27.92h7V11.86Z"/><path class="cls-1" d="M152,.14h11.24c.15,0,.23.09.23.22V27.92h12.08a.24.24,0,0,1,.25.25V39.38a.22.22,0,0,1-.25.25H152a.22.22,0,0,1-.25-.25V.36C151.81.21,151.89.14,152,.14Z"/><path class="cls-1" d="M206.51.14q.42,0,1.67,12.44.15.22,3.4,26.94l-.25.11H200c-.29,0-.78-3.42-1.44-10.27-.08,0-.15-.4-.23-1.19h-6.54q-1.2,10.61-1.44,11.46H178.85a.22.22,0,0,1-.25-.25Q182.94,3.2,183.44.14ZM193.82,11.86l-.61,4.59h3.62l-.47-4.59Z"/><path class="cls-1" d="M214.58.36h23.94q6.47,5.27,7.13,6V17.76a13.92,13.92,0,0,1-2.54,2.06v.36a13.4,13.4,0,0,1,2.54,2.06V33.59q-.68.78-7.13,6H214.58c-.14,0-.22-.08-.22-.25V.61C214.38.45,214.46.36,214.58.36Zm11.61,9.91v3.65h7.74V10.27Zm0,15.84v3.61h7.74V26.11Z"/></g></g></svg>